<svg width="512" height="512" viewBox="0 0 512 512" fill="none" xmlns="http://www.w3.org/2000/svg">
<path d="M52.0989 359.336H33.7795L30.6319 368.275H23.1404L38.8158 324.46H47.1256L62.801 368.275H55.2466L52.0989 359.336ZM50.0844 353.481L42.9707 333.147L35.794 353.481H50.0844ZM67.2244 350.9C67.2244 347.333 67.9379 344.206 69.3648 341.52C70.8337 338.792 72.8482 336.694 75.4083 335.225C77.9684 333.756 80.9063 333.021 84.2218 333.021C88.4187 333.021 91.8811 334.029 94.6091 336.043C97.379 338.016 99.2467 340.849 100.212 344.542H92.4687C91.8391 342.821 90.8319 341.478 89.4469 340.513C88.062 339.548 86.3202 339.065 84.2218 339.065C81.284 339.065 78.9337 340.114 77.171 342.213C75.4503 344.269 74.59 347.165 74.59 350.9C74.59 354.635 75.4503 357.552 77.171 359.651C78.9337 361.749 81.284 362.798 84.2218 362.798C88.3767 362.798 91.1257 360.973 92.4687 357.321H100.212C99.2047 360.847 97.3161 363.659 94.5461 365.757C91.7762 367.814 88.3348 368.842 84.2218 368.842C80.9063 368.842 77.9684 368.107 75.4083 366.638C72.8482 365.128 70.8337 363.029 69.3648 360.343C67.9379 357.615 67.2244 354.468 67.2244 350.9ZM104.972 350.774C104.972 347.291 105.685 344.206 107.112 341.52C108.581 338.834 110.554 336.757 113.03 335.288C115.548 333.777 118.318 333.021 121.34 333.021C124.068 333.021 126.439 333.567 128.453 334.658C130.51 335.707 132.147 337.029 133.364 338.624V333.588H140.603V368.275H133.364V363.113C132.147 364.75 130.489 366.114 128.39 367.205C126.292 368.296 123.9 368.842 121.214 368.842C118.234 368.842 115.506 368.086 113.03 366.576C110.554 365.023 108.581 362.882 107.112 360.154C105.685 357.384 104.972 354.258 104.972 350.774ZM133.364 350.9C133.364 348.508 132.86 346.43 131.853 344.668C130.888 342.905 129.608 341.562 128.013 340.639C126.418 339.715 124.697 339.254 122.851 339.254C121.004 339.254 119.283 339.715 117.688 340.639C116.094 341.52 114.792 342.842 113.785 344.605C112.82 346.326 112.337 348.382 112.337 350.774C112.337 353.166 112.82 355.265 113.785 357.07C114.792 358.874 116.094 360.259 117.688 361.225C119.325 362.148 121.046 362.609 122.851 362.609C124.697 362.609 126.418 362.148 128.013 361.225C129.608 360.301 130.888 358.958 131.853 357.195C132.86 355.391 133.364 353.292 133.364 350.9ZM147.637 350.774C147.637 347.291 148.351 344.206 149.778 341.52C151.247 338.834 153.219 336.757 155.695 335.288C158.214 333.777 161.004 333.021 164.068 333.021C166.334 333.021 168.559 333.525 170.741 334.532C172.966 335.498 174.728 336.799 176.029 338.435V321.69H183.269V368.275H176.029V363.05C174.854 364.729 173.217 366.114 171.119 367.205C169.062 368.296 166.691 368.842 164.005 368.842C160.983 368.842 158.214 368.086 155.695 366.576C153.219 365.023 151.247 362.882 149.778 360.154C148.351 357.384 147.637 354.258 147.637 350.774ZM176.029 350.9C176.029 348.508 175.526 346.43 174.518 344.668C173.553 342.905 172.273 341.562 170.678 340.639C169.083 339.715 167.363 339.254 165.516 339.254C163.669 339.254 161.949 339.715 160.354 340.639C158.759 341.52 157.458 342.842 156.451 344.605C155.486 346.326 155.003 348.382 155.003 350.774C155.003 353.166 155.486 355.265 156.451 357.07C157.458 358.874 158.759 360.259 160.354 361.225C161.991 362.148 163.711 362.609 165.516 362.609C167.363 362.609 169.083 362.148 170.678 361.225C172.273 360.301 173.553 358.958 174.518 357.195C175.526 355.391 176.029 353.292 176.029 350.9ZM224.487 350.082C224.487 351.383 224.403 352.558 224.235 353.607H197.731C197.941 356.377 198.97 358.601 200.816 360.28C202.663 361.959 204.929 362.798 207.615 362.798C211.476 362.798 214.204 361.183 215.799 357.951H223.542C222.493 361.141 220.583 363.764 217.814 365.82C215.086 367.835 211.686 368.842 207.615 368.842C204.3 368.842 201.32 368.107 198.676 366.638C196.074 365.128 194.017 363.029 192.506 360.343C191.037 357.615 190.303 354.468 190.303 350.9C190.303 347.333 191.016 344.206 192.443 341.52C193.912 338.792 195.948 336.694 198.55 335.225C201.194 333.756 204.216 333.021 207.615 333.021C210.889 333.021 213.806 333.735 216.366 335.162C218.926 336.589 220.919 338.603 222.346 341.205C223.773 343.765 224.487 346.724 224.487 350.082ZM216.995 347.815C216.953 345.171 216.009 343.052 214.162 341.457C212.316 339.862 210.028 339.065 207.3 339.065C204.824 339.065 202.705 339.862 200.942 341.457C199.179 343.01 198.13 345.129 197.794 347.815H216.995ZM273.539 333.021C276.267 333.021 278.701 333.588 280.842 334.721C283.024 335.854 284.724 337.533 285.941 339.757C287.2 341.982 287.829 344.668 287.829 347.815V368.275H280.716V348.886C280.716 345.78 279.939 343.409 278.386 341.772C276.834 340.093 274.714 339.254 272.028 339.254C269.342 339.254 267.202 340.093 265.607 341.772C264.054 343.409 263.278 345.78 263.278 348.886V368.275H256.164V348.886C256.164 345.78 255.387 343.409 253.835 341.772C252.282 340.093 250.162 339.254 247.476 339.254C244.79 339.254 242.65 340.093 241.055 341.772C239.502 343.409 238.726 345.78 238.726 348.886V368.275H231.549V333.588H238.726V337.554C239.901 336.127 241.391 335.015 243.196 334.218C245 333.42 246.931 333.021 248.987 333.021C251.757 333.021 254.233 333.609 256.416 334.784C258.598 335.959 260.277 337.659 261.452 339.883C262.501 337.785 264.138 336.127 266.362 334.91C268.587 333.651 270.979 333.021 273.539 333.021ZM300.613 328.992C299.312 328.992 298.221 328.552 297.339 327.67C296.458 326.789 296.017 325.698 296.017 324.397C296.017 323.096 296.458 322.005 297.339 321.123C298.221 320.242 299.312 319.801 300.613 319.801C301.872 319.801 302.942 320.242 303.823 321.123C304.705 322.005 305.145 323.096 305.145 324.397C305.145 325.698 304.705 326.789 303.823 327.67C302.942 328.552 301.872 328.992 300.613 328.992ZM304.138 333.588V368.275H296.962V333.588H304.138ZM311.168 350.9C311.168 347.333 311.882 344.206 313.309 341.52C314.778 338.792 316.792 336.694 319.352 335.225C321.912 333.756 324.85 333.021 328.166 333.021C332.363 333.021 335.825 334.029 338.553 336.043C341.323 338.016 343.191 340.849 344.156 344.542H336.413C335.783 342.821 334.776 341.478 333.391 340.513C332.006 339.548 330.264 339.065 328.166 339.065C325.228 339.065 322.878 340.114 321.115 342.213C319.394 344.269 318.534 347.165 318.534 350.9C318.534 354.635 319.394 357.552 321.115 359.651C322.878 361.749 325.228 362.798 328.166 362.798C332.321 362.798 335.07 360.973 336.413 357.321H344.156C343.149 360.847 341.26 363.659 338.49 365.757C335.72 367.814 332.279 368.842 328.166 368.842C324.85 368.842 321.912 368.107 319.352 366.638C316.792 365.128 314.778 363.029 313.309 360.343C311.882 357.615 311.168 354.468 311.168 350.9ZM402.6 324.523V368.275H395.423V349.137H374.838V368.275H367.661V324.523H374.838V343.283H395.423V324.523H402.6ZM443.462 333.588V368.275H436.285V364.183C435.152 365.61 433.662 366.743 431.815 367.583C430.011 368.38 428.08 368.779 426.024 368.779C423.296 368.779 420.84 368.212 418.658 367.079C416.518 365.946 414.818 364.267 413.559 362.043C412.342 359.819 411.733 357.133 411.733 353.985V333.588H418.847V352.915C418.847 356.02 419.623 358.413 421.176 360.091C422.729 361.728 424.848 362.547 427.534 362.547C430.22 362.547 432.34 361.728 433.893 360.091C435.488 358.413 436.285 356.02 436.285 352.915V333.588H443.462ZM460.107 338.75C461.324 337.071 462.982 335.707 465.081 334.658C467.221 333.567 469.592 333.021 472.194 333.021C475.258 333.021 478.028 333.756 480.504 335.225C482.98 336.694 484.932 338.792 486.359 341.52C487.786 344.206 488.499 347.291 488.499 350.774C488.499 354.258 487.786 357.384 486.359 360.154C484.932 362.882 482.959 365.023 480.441 366.576C477.965 368.086 475.216 368.842 472.194 368.842C469.508 368.842 467.116 368.317 465.018 367.268C462.961 366.219 461.324 364.876 460.107 363.239V368.275H452.931V321.69H460.107V338.75ZM481.197 350.774C481.197 348.382 480.693 346.326 479.686 344.605C478.721 342.842 477.42 341.52 475.783 340.639C474.188 339.715 472.467 339.254 470.621 339.254C468.816 339.254 467.095 339.715 465.458 340.639C463.864 341.562 462.563 342.905 461.555 344.668C460.59 346.43 460.107 348.508 460.107 350.9C460.107 353.292 460.59 355.391 461.555 357.195C462.563 358.958 463.864 360.301 465.458 361.225C467.095 362.148 468.816 362.609 470.621 362.609C472.467 362.609 474.188 362.148 475.783 361.225C477.42 360.259 478.721 358.874 479.686 357.07C480.693 355.265 481.197 353.166 481.197 350.774Z" fill="#DC3C2A"/>
<path d="M217.168 144.059V171.254C217.168 174.234 217.944 176.522 219.497 178.116C221.05 179.669 223.233 180.446 226.044 180.446C228.898 180.446 231.102 179.669 232.655 178.116C234.207 176.522 234.984 174.234 234.984 171.254V144.059H243.86V171.191C243.86 174.927 243.042 178.095 241.405 180.697C239.81 183.258 237.649 185.188 234.921 186.489C232.235 187.79 229.234 188.441 225.919 188.441C222.645 188.441 219.665 187.79 216.979 186.489C214.335 185.188 212.237 183.258 210.684 180.697C209.131 178.095 208.355 174.927 208.355 171.191V144.059H217.168ZM284.419 157.657C284.419 160.007 283.852 162.21 282.719 164.267C281.628 166.323 279.886 167.981 277.494 169.24C275.144 170.499 272.164 171.129 268.555 171.129H261.189V188H252.376V144.059H268.555C271.954 144.059 274.85 144.646 277.242 145.821C279.634 146.996 281.418 148.612 282.593 150.669C283.81 152.725 284.419 155.054 284.419 157.657ZM268.177 164.015C270.611 164.015 272.416 163.469 273.591 162.378C274.766 161.245 275.354 159.671 275.354 157.657C275.354 153.376 272.961 151.235 268.177 151.235H261.189V164.015H268.177ZM299.49 181.012H313.969V188H290.676V144.059H299.49V181.012Z" fill="#014487"/>
<path d="M56.0539 294.983L49.6155 308.575C89.1043 287.4 202.468 298.321 254.214 306.429C186.11 281.248 93.7305 288.306 56.0539 294.983Z" fill="#014487"/>
<path d="M78.2313 279.961C70.7914 280.533 64.1622 287.83 61.7776 291.407C93.8265 275.955 193.407 288.307 239.191 296.414C124.731 269.945 87.5312 279.245 78.2313 279.961Z" fill="#014487"/>
<path d="M78.2313 274.953C93.9696 264.699 134.746 246.91 171.946 257.784C183.001 261.008 212.74 272.685 245.696 294.103C246.979 294.896 248.15 295.669 249.207 296.414C248.033 295.632 246.862 294.861 245.696 294.103C222.347 279.684 161.773 258.678 78.2313 274.953Z" fill="#014487"/>
<path d="M91.8235 209.854C102.697 249.915 114.954 257.069 119.723 255.638C114 253.922 108.754 232.03 106.846 221.299C145.763 211.57 219.876 263.984 252.068 291.407C183.392 206.133 116.623 201.508 91.8235 209.854Z" fill="#014487"/>
<path d="M455.234 294.321L461.673 307.913C422.184 286.737 308.82 297.659 257.075 305.767C325.179 280.585 417.558 287.644 455.234 294.321Z" fill="#014487"/>
<path d="M433.058 279.298C440.498 279.871 447.127 287.167 449.511 290.744C417.463 275.292 317.882 287.645 272.098 295.752C386.558 269.283 423.758 278.583 433.058 279.298Z" fill="#014487"/>
<path d="M433.058 274.29C417.319 264.037 376.543 246.248 339.343 257.121C328.288 260.346 298.549 272.023 265.593 293.441C264.31 294.234 263.139 295.006 262.082 295.752C263.256 294.969 264.427 294.199 265.593 293.441C288.942 279.022 349.516 258.016 433.058 274.29Z" fill="#014487"/>
<path d="M419.466 209.192C408.592 249.253 396.335 256.406 391.566 254.976C397.289 253.259 402.535 231.368 404.443 220.637C365.526 210.908 291.413 263.321 259.221 290.744C327.897 205.471 394.666 200.845 419.466 209.192Z" fill="#014487"/>
<path d="M256.862 192.06L256.359 191.871L255.857 192.06L203.634 211.644L200.562 212.796L203.497 214.263L255.719 240.374L256.359 240.694L256.999 240.374L281.872 227.938L285.074 226.337L281.651 225.29L258.317 218.156L257.783 217.993L257.28 218.234C256.992 218.372 256.677 218.444 256.358 218.445C255.789 218.445 255.243 218.218 254.841 217.816C254.438 217.413 254.212 216.867 254.212 216.298C254.212 216.09 254.242 215.885 254.3 215.689L255.347 216.011L258.623 217.019L258.625 217.033L259.497 217.299L265.612 219.169L265.614 219.17L299.433 229.575V230.555C299.038 230.929 298.706 231.365 298.45 231.848C298.068 232.568 297.868 233.372 297.867 234.187V234.19C297.868 235.025 298.077 235.846 298.476 236.579C298.705 237 298.993 237.385 299.329 237.722C298.616 240.979 298.259 245.682 298.073 250.186C297.867 255.168 297.867 260.062 297.867 262.814V263.591L298.518 264.014C298.588 264.059 298.657 264.104 298.725 264.149C299.502 264.654 300.172 265.09 300.751 265.397C301.395 265.74 302.08 266.011 302.859 266.02C303.644 266.03 304.337 265.771 304.997 265.424C305.638 265.085 306.379 264.59 307.253 264.001L307.885 263.576V262.814C307.885 260.063 307.885 255.169 307.679 250.187C307.494 245.684 307.137 240.981 306.424 237.724C306.76 237.386 307.048 237.001 307.277 236.579C307.676 235.845 307.885 235.024 307.885 234.189V234.188C307.885 233.372 307.685 232.568 307.303 231.846C307.047 231.362 306.714 230.925 306.32 230.551V225.546V224.489L305.31 224.178L295.456 221.146L309.222 214.263L312.156 212.796L309.084 211.644L256.862 192.06ZM225.86 227.614H224.648L224.449 228.81L221.514 246.419L221.271 247.881L222.74 248.073C228.275 248.797 235.061 252.059 241.46 256.059C245.067 258.313 248.433 260.78 251.151 263.159L251.152 263.159C252.813 264.613 254.174 265.983 255.248 267.308L256.359 268.679L257.471 267.308C258.545 265.983 259.906 264.613 261.567 263.159L261.567 263.159C264.286 260.78 267.651 258.313 271.258 256.059C277.658 252.059 284.443 248.797 289.979 248.073L291.448 247.881L291.204 246.419L288.269 228.81L288.07 227.614H286.858H285.46H285.122L284.82 227.765L256.359 241.996L227.898 227.765L227.596 227.614H227.258H225.86Z" fill="#014487" stroke="white" stroke-width="2.86151"/>
</svg>
