<svg width="30" height="30" viewBox="0 0 30 30" fill="none" xmlns="http://www.w3.org/2000/svg">
<path d="M23.7949 23.7949C22.1441 23.7949 20.8205 25.1185 20.8205 26.7692C20.8205 27.5581 21.1339 28.3146 21.6917 28.8724C22.2495 29.4302 23.006 29.7436 23.7949 29.7436C24.5837 29.7436 25.3403 29.4302 25.8981 28.8724C26.4559 28.3146 26.7692 27.5581 26.7692 26.7692C26.7692 25.9804 26.4559 25.2238 25.8981 24.666C25.3403 24.1082 24.5837 23.7949 23.7949 23.7949ZM0 0V2.97436H2.97436L8.32821 14.2621L6.30564 17.9056C6.08256 18.3221 5.94872 18.8128 5.94872 19.3333C5.94872 20.1222 6.26209 20.8787 6.81989 21.4365C7.37769 21.9943 8.13423 22.3077 8.92308 22.3077H26.7692V19.3333H9.54769C9.44909 19.3333 9.35452 19.2942 9.28479 19.2244C9.21507 19.1547 9.1759 19.0601 9.1759 18.9615C9.1759 18.8872 9.19077 18.8277 9.22051 18.7831L10.559 16.359H21.6385C22.7538 16.359 23.7354 15.7344 24.241 14.8272L29.5651 5.20513C29.6692 4.96718 29.7436 4.71436 29.7436 4.46154C29.7436 4.06711 29.5869 3.68884 29.308 3.40994C29.0291 3.13104 28.6508 2.97436 28.2564 2.97436H6.26103L4.86308 0M8.92308 23.7949C7.27231 23.7949 5.94872 25.1185 5.94872 26.7692C5.94872 27.5581 6.26209 28.3146 6.81989 28.8724C7.37769 29.4302 8.13423 29.7436 8.92308 29.7436C9.71193 29.7436 10.4685 29.4302 11.0263 28.8724C11.5841 28.3146 11.8974 27.5581 11.8974 26.7692C11.8974 25.9804 11.5841 25.2238 11.0263 24.666C10.4685 24.1082 9.71193 23.7949 8.92308 23.7949Z" fill="#024873"/>
</svg>
